# ProBuilder 4.5.2
# https://unity3d.com/unity/features/worldbuilding/probuilder
# 2021/11/4 10:52:43

mtllib ./Ladder.mtl
o Ladder

g Ladder
v 0 0 0
v -0.1 0 0
v 0 12.04482 0
v -0.1 12.04482 0
v -0.1 0 -0.1
v -0.1 12.04482 -0.0999999
v 0 0 -0.1
v 0 12.04482 -0.0999999
v 0 11.89084 0.5704217
v -0.1 11.89084 0.5704217
v 0 11.89365 0.6703815
v -0.1 11.89365 0.6703815
v 0 12.33169 0.1822448
v -0.1 12.33169 0.1822448
v 0 12.38204 0.09584761
v -0.1 12.38204 0.09584761
v 0 12.40716 0.3799629
v -0.1 12.40716 0.3799629
v 0 12.50703 0.3850484
v -0.1 12.50703 0.3850484
v 0 12.30502 0.550446
v -0.1 12.30502 0.550446
v 0 12.35774 0.6354208
v -0.1 12.35774 0.6354208
v 0 2.84 0
v -1 2.84 0
v 0 2.94 0
v -1 2.94 0
v -1 2.84 -0.0999999
v -1 2.94 -0.0999999
v 0 2.84 -0.0999999
v 0 2.94 -0.0999999
v 0 6.84 0
v -1 6.84 0
v 0 6.94 0
v -1 6.94 0
v -1 6.84 -0.0999999
v -1 6.94 -0.0999999
v 0 6.84 -0.0999999
v 0 6.94 -0.0999999
v 0 3.84 0
v -1 3.84 0
v 0 3.94 0
v -1 3.94 0
v -1 3.84 -0.0999999
v -1 3.94 -0.0999999
v 0 3.84 -0.0999999
v 0 3.94 -0.0999999
v 0 1.84 0
v -1 1.84 0
v 0 1.94 0
v -1 1.94 0
v -1 1.84 -0.0999999
v -1 1.94 -0.0999999
v 0 1.84 -0.0999999
v 0 1.94 -0.0999999
v -1 0 0
v -1.1 0 0
v -1 12.04482 0
v -1.1 12.04482 0
v -1.1 0 -0.0999999
v -1.1 12.04482 -0.0999999
v -1 0 -0.0999999
v -1 12.04482 -0.0999999
v -1 11.89084 0.5704217
v -1.1 11.89084 0.5704217
v -1 11.89365 0.6703815
v -1.1 11.89365 0.6703815
v -1 12.33169 0.1822448
v -1.1 12.33169 0.1822448
v -1 12.38204 0.09584761
v -1.1 12.38204 0.09584761
v -1 12.40716 0.3799629
v -1.1 12.40716 0.3799629
v -1 12.50703 0.3850484
v -1.1 12.50703 0.3850484
v -1 12.30502 0.550446
v -1.1 12.30502 0.550446
v -1 12.35774 0.6354208
v -1.1 12.35774 0.6354208
v 0 8.84 0
v -1 8.84 0
v 0 8.940001 0
v -1 8.940001 0
v -1 8.84 -0.0999999
v -1 8.940001 -0.0999999
v 0 8.84 -0.0999999
v 0 8.940001 -0.0999999
v 0 5.84 0
v -1 5.84 0
v 0 5.94 0
v -1 5.94 0
v -1 5.84 -0.0999999
v -1 5.94 -0.0999999
v 0 5.84 -0.0999999
v 0 5.94 -0.0999999
v 0 0.84 0
v -1 0.84 0
v 0 0.94 0
v -1 0.94 0
v -1 0.84 -0.0999999
v -1 0.94 -0.0999999
v 0 0.84 -0.0999999
v 0 0.94 -0.0999999
v 0 7.84 0
v -1 7.84 0
v 0 7.94 0
v -1 7.94 0
v -1 7.84 -0.0999999
v -1 7.94 -0.0999999
v 0 7.84 -0.0999999
v 0 7.94 -0.0999999
v 0 9.84 0
v -1 9.84 0
v 0 9.940001 0
v -1 9.940001 0
v -1 9.84 -0.0999999
v -1 9.940001 -0.0999999
v 0 9.84 -0.0999999
v 0 9.940001 -0.0999999
v 0 4.84 0
v -1 4.84 0
v 0 4.94 0
v -1 4.94 0
v -1 4.84 -0.0999999
v -1 4.94 -0.0999999
v 0 4.84 -0.0999999
v 0 4.94 -0.0999999
v 0 10.84 0
v -1 10.84 0
v 0 10.94 0
v -1 10.94 0
v -1 10.84 -0.0999999
v -1 10.94 -0.0999999
v 0 10.84 -0.0999999
v 0 10.94 -0.0999999
v 0 11.84 0
v -1 11.84 0
v 0 11.94 0
v -1 11.94 0
v -1 11.84 -0.0999999
v -1 11.94 -0.0999999
v 0 11.84 -0.0999999
v 0 11.94 -0.0999999

vt 0 0
vt -0.1 0
vt 0 12.04482
vt -0.1 12.04482
vt -0.0999999 12.04482
vt 0.1 -8.041427E-10
vt 0.1 12.04482
vt 0.0999999 12.04482
vt 0 0.9039354
vt -0.1 0.9039354
vt 0 1.003935
vt -0.1 1.003935
vt 0 -0.1
vt -0.1 -0.1
vt 0 10.16668
vt -0.1 10.16668
vt 0 10.50654
vt -0.1 10.50654
vt -0.09584761 12.38204
vt -0.1822448 12.33169
vt 0.1822448 12.33169
vt 0.09584761 12.38204
vt 0.1 10.36545
vt 0 10.36545
vt 0.1 10.75541
vt 0 10.75541
vt 0 4.56771
vt -0.1 4.56771
vt 0 4.779342
vt -0.1 4.779342
vt -0.3850484 12.50703
vt -0.3799629 12.40716
vt 0.3799629 12.40716
vt 0.3850484 12.50703
vt 0.1 5.000036
vt 0 5.000036
vt 0.1 5.315088
vt 0 5.315088
vt 0 -6.050358
vt -0.1 -6.050358
vt 0 -5.851622
vt -0.1 -5.851622
vt -0.6354208 12.35774
vt -0.550446 12.30502
vt 0.550446 12.30502
vt 0.6354208 12.35774
vt 0.1 -6.074499
vt 0 -6.074499
vt 0.1 -5.782999
vt 0 -5.782999
vt 0 12.26422
vt 0.1 12.26422
vt 0 11.84956
vt 0.1 11.84956
vt -0.6703815 11.89365
vt -0.5704217 11.89084
vt 0.5704217 11.89084
vt 0.6703815 11.89365
vt -0.1 12.27509
vt 0 12.27509
vt -0.1 11.80969
vt 0 11.80969
vt -1 0
vt 0 0.0999999
vt -1 0.0999999
vt -0.09999999 0
vt -0.09999999 0.0999999
vt 1 0
vt 1 0.0999999
vt 0.09999999 0
vt 0.09999999 0.0999999
vt 0 -0.09999999
vt 1 -0.09999999
vt -1 -0.09999999
vt -0.09999996 0.9039354
vt -0.09999996 1.003935
vt -0.09999996 -0.09999999
vt -0.09999996 10.16668
vt -0.09999996 10.50654
vt 0.09999996 10.36545
vt 0.09999996 10.75541
vt -0.09999996 4.56771
vt -0.09999996 4.779341
vt 0.09999996 5.000036
vt 0.09999996 5.315088
vt -0.09999996 -6.050358
vt -0.09999996 -5.851622
vt 0.09999996 -6.0745
vt 0.09999996 -5.782999
vt 0.09999996 12.26422
vt 0.09999996 11.84956
vt -0.09999996 12.27509
vt -0.09999996 11.80969
vt 0 0.1000004
vt -1 0.1000004
vt -0.09999999 0.1000004
vt 1 0.1000004
vt 0.09999999 0.1000004

vn 0 0 1
vn -1 -1.855714E-09 0
vn 0 8.041427E-09 -1
vn 1 0 0
vn 0 -0.9996061 0.02806685
vn 0 -1 0
vn 0 -0.5362323 0.8440704
vn 0 0.5022155 -0.8647425
vn 0 -0.9342582 0.3565973
vn 0 0.9179449 -0.3967079
vn 0 -0.8578372 -0.5139216
vn 0 0.8589081 0.5121298
vn 0 -0.0481739 -0.998839
vn 0 0.07511923 0.9971746
vn 0 1 0

usemtl Metal
f 3/3/1 4/4/1 2/2/1 1/1/1
f 4/3/2 6/5/2 5/2/2 2/1/2
f 6/7/3 8/3/3 7/1/3 5/6/3
f 8/8/4 3/3/4 1/1/4 7/6/4
f 11/11/5 12/12/5 10/10/5 9/9/5
f 1/1/6 2/2/6 5/14/6 7/13/6
f 13/17/7 14/18/7 4/16/7 3/15/7
f 15/19/4 13/20/4 3/3/4 8/8/4
f 14/21/2 16/22/2 6/5/2 4/3/2
f 16/25/8 15/26/8 8/24/8 6/23/8
f 17/29/9 18/30/9 14/28/9 13/27/9
f 19/31/4 17/32/4 13/20/4 15/19/4
f 18/33/2 20/34/2 16/22/2 14/21/2
f 20/37/10 19/38/10 15/36/10 16/35/10
f 21/41/11 22/42/11 18/40/11 17/39/11
f 23/43/4 21/44/4 17/32/4 19/31/4
f 22/45/2 24/46/2 20/34/2 18/33/2
f 24/49/12 23/50/12 19/48/12 20/47/12
f 9/53/13 10/54/13 22/52/13 21/51/13
f 11/55/4 9/56/4 21/44/4 23/43/4
f 10/57/2 12/58/2 24/46/2 22/45/2
f 12/61/14 11/62/14 23/60/14 24/59/14
f 27/64/1 28/65/1 26/63/1 25/1/1
f 28/64/2 30/67/2 29/66/2 26/1/2
f 30/69/3 32/64/3 31/1/3 29/68/3
f 32/71/4 27/64/4 25/1/4 31/70/4
f 32/72/15 30/73/15 28/68/15 27/1/15
f 25/1/6 26/63/6 29/74/6 31/72/6
f 35/64/1 36/65/1 34/63/1 33/1/1
f 36/64/2 38/67/2 37/66/2 34/1/2
f 38/69/3 40/64/3 39/1/3 37/68/3
f 40/71/4 35/64/4 33/1/4 39/70/4
f 40/72/15 38/73/15 36/68/15 35/1/15
f 33/1/6 34/63/6 37/74/6 39/72/6
f 43/64/1 44/65/1 42/63/1 41/1/1
f 44/64/2 46/67/2 45/66/2 42/1/2
f 46/69/3 48/64/3 47/1/3 45/68/3
f 48/71/4 43/64/4 41/1/4 47/70/4
f 48/72/15 46/73/15 44/68/15 43/1/15
f 41/1/6 42/63/6 45/74/6 47/72/6
f 51/64/1 52/65/1 50/63/1 49/1/1
f 52/64/2 54/67/2 53/66/2 50/1/2
f 54/69/3 56/64/3 55/1/3 53/68/3
f 56/71/4 51/64/4 49/1/4 55/70/4
f 56/72/15 54/73/15 52/68/15 51/1/15
f 49/1/6 50/63/6 53/74/6 55/72/6
f 59/3/1 60/5/1 58/66/1 57/1/1
f 60/3/2 62/5/2 61/66/2 58/1/2
f 62/8/3 64/3/3 63/1/3 61/70/3
f 64/8/4 59/3/4 57/1/4 63/70/4
f 67/11/5 68/76/5 66/75/5 65/9/5
f 57/1/6 58/66/6 61/77/6 63/72/6
f 69/17/7 70/79/7 60/78/7 59/15/7
f 71/19/4 69/20/4 59/3/4 64/8/4
f 70/21/2 72/22/2 62/5/2 60/3/2
f 72/81/8 71/26/8 64/24/8 62/80/8
f 73/29/9 74/83/9 70/82/9 69/27/9
f 75/31/4 73/32/4 69/20/4 71/19/4
f 74/33/2 76/34/2 72/22/2 70/21/2
f 76/85/10 75/38/10 71/36/10 72/84/10
f 77/41/11 78/87/11 74/86/11 73/39/11
f 79/43/4 77/44/4 73/32/4 75/31/4
f 78/45/2 80/46/2 76/34/2 74/33/2
f 80/89/12 79/50/12 75/48/12 76/88/12
f 65/53/13 66/91/13 78/90/13 77/51/13
f 67/55/4 65/56/4 77/44/4 79/43/4
f 66/57/2 68/58/2 80/46/2 78/45/2
f 68/93/14 67/62/14 79/60/14 80/92/14
f 83/94/1 84/95/1 82/63/1 81/1/1
f 84/94/2 86/96/2 85/66/2 82/1/2
f 86/97/3 88/94/3 87/1/3 85/68/3
f 88/98/4 83/94/4 81/1/4 87/70/4
f 88/72/15 86/73/15 84/68/15 83/1/15
f 81/1/6 82/63/6 85/74/6 87/72/6
f 91/64/1 92/65/1 90/63/1 89/1/1
f 92/64/2 94/67/2 93/66/2 90/1/2
f 94/69/3 96/64/3 95/1/3 93/68/3
f 96/71/4 91/64/4 89/1/4 95/70/4
f 96/72/15 94/73/15 92/68/15 91/1/15
f 89/1/6 90/63/6 93/74/6 95/72/6
f 99/94/1 100/95/1 98/63/1 97/1/1
f 100/94/2 102/96/2 101/66/2 98/1/2
f 102/97/3 104/94/3 103/1/3 101/68/3
f 104/98/4 99/94/4 97/1/4 103/70/4
f 104/72/15 102/73/15 100/68/15 99/1/15
f 97/1/6 98/63/6 101/74/6 103/72/6
f 107/64/1 108/65/1 106/63/1 105/1/1
f 108/64/2 110/67/2 109/66/2 106/1/2
f 110/69/3 112/64/3 111/1/3 109/68/3
f 112/71/4 107/64/4 105/1/4 111/70/4
f 112/72/15 110/73/15 108/68/15 107/1/15
f 105/1/6 106/63/6 109/74/6 111/72/6
f 115/94/1 116/95/1 114/63/1 113/1/1
f 116/94/2 118/96/2 117/66/2 114/1/2
f 118/97/3 120/94/3 119/1/3 117/68/3
f 120/98/4 115/94/4 113/1/4 119/70/4
f 120/72/15 118/73/15 116/68/15 115/1/15
f 113/1/6 114/63/6 117/74/6 119/72/6
f 123/64/1 124/65/1 122/63/1 121/1/1
f 124/64/2 126/67/2 125/66/2 122/1/2
f 126/69/3 128/64/3 127/1/3 125/68/3
f 128/71/4 123/64/4 121/1/4 127/70/4
f 128/72/15 126/73/15 124/68/15 123/1/15
f 121/1/6 122/63/6 125/74/6 127/72/6
f 131/94/1 132/95/1 130/63/1 129/1/1
f 132/94/2 134/96/2 133/66/2 130/1/2
f 134/97/3 136/94/3 135/1/3 133/68/3
f 136/98/4 131/94/4 129/1/4 135/70/4
f 136/72/15 134/73/15 132/68/15 131/1/15
f 129/1/6 130/63/6 133/74/6 135/72/6
f 139/94/1 140/95/1 138/63/1 137/1/1
f 140/94/2 142/96/2 141/66/2 138/1/2
f 142/97/3 144/94/3 143/1/3 141/68/3
f 144/98/4 139/94/4 137/1/4 143/70/4
f 144/72/15 142/73/15 140/68/15 139/1/15
f 137/1/6 138/63/6 141/74/6 143/72/6

