# ProBuilder 4.5.2
# https://unity3d.com/unity/features/worldbuilding/probuilder
# 2021/11/4 10:52:43

mtllib ./WoodenFrame.mtl
o WoodenFrame

g WoodenFrame
v 0 0 0
v -0.1 0 0
v 0 15 0
v -0.1 15 0
v -0.1 0 -0.1
v -0.1 15 -0.1
v 0 0 -0.1
v 0 15 -0.1
v 0 10.99 6
v -4 10.99 6
v 0 11.09 6
v -4 11.09 6
v -4 10.99 5.9
v -4 11.09 5.9
v 0 10.99 5.9
v 0 11.09 5.9
v -8.370001 11 4.2
v -8.470001 11 4.2
v -8.370001 14 4.2
v -8.470001 14 4.2
v -8.470001 11 4.1
v -8.470001 14 4.1
v -8.370001 11 4.1
v -8.370001 14 4.1
v -6.67 11.1 3.7
v -6.751915 11.04264 3.7
v -8.390729 13.55746 3.7
v -8.472645 13.5001 3.7
v -6.751915 11.04264 3.6
v -8.472645 13.5001 3.6
v -6.67 11.1 3.6
v -8.390729 13.55746 3.6
v 0 4.99 6
v -4 4.99 6
v 0 5.09 6
v -4 5.09 6
v -4 4.99 5.9
v -4 5.09 5.9
v 0 4.99 5.9
v 0 5.09 5.9
v 0 1.99 6
v -4 1.99 6
v 0 2.09 6
v -4 2.09 6
v -4 1.99 5.9
v -4 2.09 5.9
v 0 1.99 5.9
v 0 2.09 5.9
v -4.1 5.09 5.9
v -4.039818 5.010136 5.9
v -0.1068227 8.099075 5.9
v -0.04664135 8.019212 5.9
v -4.039818 5.010136 6
v -0.04664135 8.019212 6
v -4.1 5.09 6
v -0.1068227 8.099075 6
v -9.701 13.7 4.16
v -9.801001 13.7 4.16
v -9.701 13.8 4.16
v -9.801001 13.8 4.16
v -9.801001 13.7 3.76
v -9.801001 13.8 3.76
v -9.701 13.7 3.76
v -9.701 13.8 3.76
v -8.370001 11 3.8
v -8.470001 11 3.8
v -8.370001 14 3.8
v -8.470001 14 3.8
v -8.470001 11 3.7
v -8.470001 14 3.7
v -8.370001 11 3.7
v -8.370001 14 3.7
v -4.1 4.99 6
v -4.1 4.99 0
v -4.1 5.09 0
v -4 4.99 0
v -4 5.09 0
v -0.1 1.99 6
v -0.1 2.09 6
v -0.1 1.99 0
v -0.1 2.09 0
v 0 1.99 0
v 0 2.09 0
v -4.1 10.99 6
v -4.1 11.09 6
v -4.1 10.99 0
v -4.1 11.09 0
v -4 10.99 0
v -4 11.09 0
v -4.1 1.99 6
v -4.1 2.09 6
v -4.1 1.99 0
v -4.1 2.09 0
v -4 1.99 0
v -4 2.09 0
v 0 7.99 6
v -0.1 7.99 6
v 0 8.09 6
v -0.1 8.09 6
v -0.1 7.99 0
v -0.1 8.09 0
v 0 7.99 0
v 0 8.09 0
v 0 4.927087 6.021919
v -0.1 4.927087 6.021919
v -0.1 2.079879 -0.04383707
v -0.1 5.016966 5.978082
v 0 2.079879 -0.04383707
v 0 5.016966 5.978082
v -10.659 13.7 4.16
v -10.759 13.7 4.16
v -10.659 13.8 4.16
v -10.759 13.8 4.16
v -10.759 13.7 3.76
v -10.759 13.8 3.76
v -10.659 13.7 3.76
v -10.659 13.8 3.76
v 0 11 6
v -0.1 11 6
v 0 12.5 6
v -0.1 12.5 6
v -0.1 11 0
v -0.1 12.5 0
v 0 11 0
v 0 12.5 0
v -4 0 6
v -4.1 0 6
v -4 15 6
v -4.1 15 6
v -4.1 0 5.9
v -4.1 15 5.9
v -4 0 5.9
v -4 15 5.9
v -4.1 4.99 5.95
v -4 4.99 5.95
v -4.1 7.927087 -0.07191944
v -4 7.927087 -0.07191944
v -4 5.079879 5.993837
v -4 8.016966 -0.02808237
v -4.1 5.079879 5.993837
v -4.1 8.016966 -0.02808237
v -8.370001 13.8 4.2
v -8.370001 13.7 4.2
v -11.37 13.8 4.2
v -11.37 13.7 4.2
v -8.370001 13.7 4.1
v -11.37 13.7 4.1
v -8.370001 13.8 4.1
v -11.37 13.8 4.1
v -4 7.99 6
v -4 8.09 6
v -4 7.99 5.9
v -4 8.09 5.9
v 0 7.99 5.9
v 0 8.09 5.9
v 0 10.92709 6.021919
v -0.1 10.92709 6.021919
v -0.1 8.079879 -0.04383707
v -0.1 11.01697 5.978082
v 0 8.079879 -0.04383707
v 0 11.01697 5.978082
v -4.1 1.99 5.95
v -4 1.99 5.95
v -4.1 4.927087 -0.07191944
v -4 4.927087 -0.07191944
v -4 2.079879 5.993837
v -4 5.016966 -0.02808237
v -4.1 2.079879 5.993837
v -4.1 5.016966 -0.02808237
v -0.1 10.99 6
v -0.1 11.09 6
v -0.1 10.99 0
v -0.1 11.09 0
v 0 10.99 0
v 0 11.09 0
v -4.1 2.09 5.9
v -4.039818 2.010137 5.9
v -0.1068227 5.099076 5.9
v -0.04664135 5.019212 5.9
v -4.039818 2.010137 6
v -0.04664135 5.019212 6
v -4.1 2.09 6
v -0.1068227 5.099076 6
v 0 4.99 0
v 0 5.09 0
v -4 4.99 -0.0999999
v -4 5.09 -0.0999999
v 0 4.99 -0.0999999
v 0 5.09 -0.0999999
v -0.1 4.99 6
v -0.1 5.09 6
v -0.1 4.99 0
v -0.1 5.09 0
v -8.370001 13.8 3.8
v -8.370001 13.7 3.8
v -11.37 13.8 3.8
v -11.37 13.7 3.8
v -8.370001 13.7 3.7
v -11.37 13.7 3.7
v -8.370001 13.8 3.7
v -11.37 13.8 3.7
v -4 10.99 -0.0999999
v -4 11.09 -0.0999999
v 0 10.99 -0.0999999
v 0 11.09 -0.0999999
v -0.06018151 4.910136 0
v -3.993177 7.999075 0
v -4.053359 7.919212 0
v -0.06018151 4.910136 -0.0999999
v -4.053359 7.919212 -0.0999999
v -3.993177 7.999075 -0.0999999
v -0.06018151 7.910136 0
v -3.993177 10.99907 0
v -4.053359 10.91921 0
v -0.06018151 7.910136 -0.0999999
v -4.053359 10.91921 -0.0999999
v 0 7.99 -0.0999999
v -3.993177 10.99907 -0.0999999
v -11.237 13.7 4.16
v -11.337 13.7 4.16
v -11.237 13.8 4.16
v -11.337 13.8 4.16
v -11.337 13.7 3.76
v -11.337 13.8 3.76
v -11.237 13.7 3.76
v -11.237 13.8 3.76
v -4 11 6
v 0 11.1 6
v -4 11.1 6
v -4 11 0
v -4 11.1 0
v 0 11.1 0
v 0 7.927087 6.021919
v -0.1 7.927087 6.021919
v -0.1 5.079879 -0.04383707
v -0.1 8.016966 5.978082
v 0 5.079879 -0.04383707
v 0 8.016966 5.978082
v -1 2 -0.0999999
v -3 2 -0.0999999
v -1 11 -0.0999999
v -3 11 -0.0999999
v -3 2 -0.1999998
v -3 11 -0.1999998
v -1 2 -0.1999998
v -1 11 -0.1999998
v -4.1 7.99 5.95
v -4 7.99 5.95
v -4.1 10.92709 -0.07191944
v -4 10.92709 -0.07191944
v -4 8.079879 5.993837
v -4 11.01697 -0.02808237
v -4.1 8.079879 5.993837
v -4.1 11.01697 -0.02808237
v -4 1.99 -0.0999999
v -4 2.09 -0.0999999
v 0 1.99 -0.0999999
v 0 2.09 -0.0999999
v -4 7.99 0
v -4 8.09 0
v -4 7.99 -0.0999999
v -4 8.09 -0.0999999
v 0 8.09 -0.0999999
v -8.831 13.7 4.16
v -8.931001 13.7 4.16
v -8.831 13.8 4.16
v -8.931001 13.8 4.16
v -8.931001 13.7 3.76
v -8.931001 13.8 3.76
v -8.831 13.7 3.76
v -8.831 13.8 3.76
v -0.06018151 1.910136 0
v -3.993177 4.999075 0
v -4.053359 4.919212 0
v -0.06018151 1.910136 -0.0999999
v -4.053359 4.919212 -0.0999999
v -3.993177 4.999075 -0.0999999
v -6.67 11.1 4.3
v -6.751915 11.04264 4.3
v -8.390729 13.55746 4.3
v -8.472645 13.5001 4.3
v -6.751915 11.04264 4.2
v -8.472645 13.5001 4.2
v -6.67 11.1 4.2
v -8.390729 13.55746 4.2
v -4 0 0
v -4.1 0 0
v -4 15 0
v -4.1 15 0
v -4.1 0 -0.0999999
v -4.1 15 -0.0999999
v -4 0 -0.0999999
v -4 15 -0.0999999
v 0 0 6
v -0.1 0 6
v 0 15 6
v -0.1 15 6
v -0.1 0 5.9
v -0.1 15 5.9
v 0 0 5.9
v 0 15 5.9
v -10 11 6
v -10 11.1 6
v -10 11 2
v -10 11.1 2
v -4 11 2
v -4 11.1 2
v -4.1 8.09 5.9
v -4.039818 8.010137 5.9
v -0.1068227 11.09908 5.9
v -0.04664135 11.01921 5.9
v -4.039818 8.010137 6
v -0.04664135 11.01921 6
v -4.1 8.09 6
v -0.1068227 11.09908 6
v -4.1 7.99 6
v -4.1 7.99 0
v -4.1 8.09 0
v -4.1 11 2
v -4 12.5 2
v -4.1 12.5 2
v -4.1 11 0
v -4.1 12.5 0
v -4 12.5 0
v -4 12.5 6
v -4 11 5.9
v -4 12.5 5.9
v 0 11 5.9
v 0 12.5 5.9

vt 0 0
vt -0.1 0
vt 0 15
vt -0.1 15
vt 0.1 0
vt 0.1 15
vt 0 -0.1
vt 0.1 -0.1
vt -0.1 -0.1
vt -4 0
vt 0 0.1000004
vt -4 0.1000004
vt -0.0999999 0
vt -0.0999999 0.1000004
vt 4 0
vt 4 0.1000004
vt 0.0999999 0
vt 0.0999999 0.1000004
vt 0 -0.0999999
vt 4 -0.0999999
vt -4 -0.0999999
vt -0.1014652 0
vt 0.001464844 3
vt -0.1000004 3.00005
vt 0 3
vt -0.0999999 3
vt -0.001464844 0
vt 0.1014652 3
vt 0.0999999 3
vt 0.09999943 -0.1000485
vt -0.100049 -0.0999999
vt 0.1 -0.0999999
vt 0 0.0999999
vt -4 0.0999999
vt -0.0999999 0.0999999
vt 4 0.0999999
vt 0.0999999 0.0999999
vt 4.768372E-07 5
vt -0.09999943 5
vt -0.1000001 5
vt 0.0999999 5
vt 0.1000001 5
vt -0.3999999 0
vt -0.3999999 0.1000004
vt 0.100049 0.09999943
vt 0.3999999 0
vt 0.3999999 0.1000004
vt -0.0001945496 -0.3999999
vt 0.1000004 -0.4000487
vt 0 -0.4000487
vt -0.1001949 -0.3999999
vt -6 0
vt -6 0.0999999
vt 6 0
vt 6 0.0999999
vt 0 -6
vt 0.0999999 -6
vt -0.0999999 -6
vt -0.1 0.0999999
vt 0.1 -6
vt -0.1 -6
vt -6 0.1000004
vt 6 0.1000004
vt -0.1 0.1000004
vt 0.1 0.1000004
vt 0 6.7
vt -0.1 6.7
vt -2.384186E-07 6.7
vt -0.1000004 6.699999
vt 0.1 6.7
vt 0.0999999 6.699999
vt 0 1.5
vt -0.1 1.5
vt -6 1.5
vt 0.1 1.5
vt 6 1.5
vt -0.0999999 15
vt 0.0999999 15
vt 0.0999999 -0.0999999
vt -0.0999999 -0.0999999
vt -0.09999967 6.699999
vt 0.1000009 6.7
vt 0.1000004 3
vt -0.0999999 6.7
vt -4.768372E-07 4.999999
vt -0.1000004 4.999999
vt -0.09999971 -0.1000004
vt 4 -6
vt -4 -6
vt -2 0
vt 0 9
vt -2 9
vt -0.09999999 9
vt 2 0
vt 2 9
vt 0.09999999 9
vt 2 -0.09999999
vt -2 -0.09999999
vt 0.1014652 2.999999
vt 0 -4
vt 6 -4
vt -6 -4
vt -0.0999999 1.5
vt -2 1.5
vt 0.0999999 1.5
vt 2 1.5
vt 0 -2
vt 0.0999999 -2
vt -0.0999999 -2
vt -4 1.5
vt 4 1.5

vn 0 0 1
vn -1 0 0
vn 0 0 -1
vn 1 0 0
vn 0 1 0
vn 0 -1 0
vn -0.8191521 -0.5735764 0
vn 0.8191522 0.5735763 0
vn -0.5735743 0.8191535 0
vn 0.5735766 -0.8191519 0
vn 0.6018152 -0.7986354 0
vn -0.6018152 0.7986354 0
vn 0.7986361 0.6018143 0
vn -0.7986349 -0.6018158 0
vn 0 -0.898794 0.4383712
vn 0 0.898794 -0.4383712
vn 0 0.4383704 0.8987945
vn 0 -0.4383704 -0.8987945
vn 0 -0.898794 -0.4383712
vn 0 0.8987941 0.4383712
vn 0 0.4383723 -0.8987936
vn 0 -0.4383704 0.8987945
vn -0.6018152 -0.7986354 0
vn 0.6018152 0.7986354 0
vn -0.7986361 0.6018143 0
vn 0.7986355 -0.6018151 0

usemtl Wood
f 3/3/1 4/4/1 2/2/1 1/1/1
f 4/3/2 6/4/2 5/2/2 2/1/2
f 6/6/3 8/3/3 7/1/3 5/5/3
f 8/6/4 3/3/4 1/1/4 7/5/4
f 8/7/5 6/8/5 4/5/5 3/1/5
f 1/1/6 2/2/6 5/9/6 7/7/6
f 11/11/1 12/12/1 10/10/1 9/1/1
f 12/11/2 14/14/2 13/13/2 10/1/2
f 14/16/3 16/11/3 15/1/3 13/15/3
f 16/18/4 11/11/4 9/1/4 15/17/4
f 16/19/5 14/20/5 12/15/5 11/1/5
f 9/1/6 10/10/6 13/21/6 15/19/6
f 19/23/1 20/24/1 18/22/1 17/1/1
f 20/25/2 22/26/2 21/13/2 18/1/2
f 22/28/3 24/25/3 23/27/3 21/5/3
f 24/29/4 19/25/4 17/1/4 23/17/4
f 24/19/5 22/30/5 20/5/5 19/1/5
f 17/1/6 18/13/6 21/31/6 23/7/6
f 27/25/1 28/26/1 26/2/1 25/1/1
f 28/25/7 30/26/7 29/13/7 26/1/7
f 30/29/3 32/25/3 31/1/3 29/5/3
f 32/29/8 27/25/8 25/1/8 31/17/8
f 32/19/9 30/32/9 28/5/9 27/1/9
f 25/1/10 26/2/10 29/31/10 31/19/10
f 35/33/1 36/34/1 34/10/1 33/1/1
f 36/33/2 38/35/2 37/13/2 34/1/2
f 38/36/3 40/33/3 39/1/3 37/15/3
f 40/37/4 35/33/4 33/1/4 39/17/4
f 40/19/5 38/20/5 36/15/5 35/1/5
f 33/1/6 34/10/6 37/21/6 39/19/6
f 43/33/1 44/34/1 42/10/1 41/1/1
f 44/33/2 46/35/2 45/13/2 42/1/2
f 46/36/3 48/33/3 47/1/3 45/15/3
f 48/37/4 43/33/4 41/1/4 47/17/4
f 48/19/5 46/20/5 44/15/5 43/1/5
f 41/1/6 42/10/6 45/21/6 47/19/6
f 51/38/3 52/39/3 50/13/3 49/1/3
f 52/38/11 54/40/11 53/2/11 50/1/11
f 54/41/1 56/38/1 55/1/1 53/5/1
f 56/42/12 51/38/12 49/1/12 55/5/12
f 56/7/13 54/8/13 52/5/13 51/1/13
f 49/1/14 50/2/14 53/9/14 55/7/14
f 59/33/1 60/14/1 58/2/1 57/1/1
f 60/11/2 62/44/2 61/43/2 58/1/2
f 62/45/3 64/11/3 63/1/3 61/17/3
f 64/47/4 59/11/4 57/1/4 63/46/4
f 64/48/5 62/49/5 60/5/5 59/1/5
f 57/1/6 58/2/6 61/51/6 63/50/6
f 67/23/1 68/24/1 66/22/1 65/1/1
f 68/25/2 70/26/2 69/13/2 66/1/2
f 70/28/3 72/25/3 71/27/3 69/5/3
f 72/29/4 67/25/4 65/1/4 71/17/4
f 72/7/5 70/30/5 68/5/5 67/1/5
f 65/1/6 66/13/6 69/9/6 71/7/6
f 36/33/1 55/35/1 73/13/1 34/1/1
f 55/33/2 75/53/2 74/52/2 73/1/2
f 75/37/3 77/33/3 76/1/3 74/17/3
f 77/55/4 36/33/4 34/1/4 76/54/4
f 77/56/5 75/57/5 55/17/5 36/1/5
f 34/1/6 73/13/6 74/58/6 76/56/6
f 43/33/1 79/59/1 78/2/1 41/1/1
f 79/33/2 81/53/2 80/52/2 78/1/2
f 81/45/3 83/33/3 82/1/3 80/5/3
f 83/55/4 43/33/4 41/1/4 82/54/4
f 83/56/5 81/60/5 79/5/5 43/1/5
f 41/1/6 78/2/6 80/61/6 82/56/6
f 12/11/1 85/14/1 84/13/1 10/1/1
f 85/11/2 87/62/2 86/52/2 84/1/2
f 87/18/3 89/11/3 88/1/3 86/17/3
f 89/63/4 12/11/4 10/1/4 88/54/4
f 89/56/5 87/57/5 85/17/5 12/1/5
f 10/1/6 84/13/6 86/58/6 88/56/6
f 44/33/1 91/35/1 90/13/1 42/1/1
f 91/33/2 93/53/2 92/52/2 90/1/2
f 93/37/3 95/33/3 94/1/3 92/17/3
f 95/55/4 44/33/4 42/1/4 94/54/4
f 95/56/5 93/57/5 91/17/5 44/1/5
f 42/1/6 90/13/6 92/58/6 94/56/6
f 98/11/1 99/64/1 97/2/1 96/1/1
f 99/11/2 101/62/2 100/52/2 97/1/2
f 101/65/3 103/11/3 102/1/3 100/5/3
f 103/63/4 98/11/4 96/1/4 102/54/4
f 103/56/5 101/60/5 99/5/5 98/1/5
f 96/1/6 97/2/6 100/61/6 102/56/6
f 104/66/15 105/67/15 80/2/15 82/1/15
f 105/68/2 107/69/2 106/13/2 80/1/2
f 107/70/16 109/66/16 108/1/16 106/5/16
f 109/71/4 104/68/4 82/1/4 108/17/4
f 109/19/17 107/32/17 105/5/17 104/1/17
f 82/1/18 80/2/18 106/9/18 108/7/18
f 112/33/1 113/14/1 111/2/1 110/1/1
f 113/11/2 115/44/2 114/43/2 111/1/2
f 115/45/3 117/11/3 116/1/3 114/17/3
f 117/47/4 112/11/4 110/1/4 116/46/4
f 117/48/5 115/49/5 113/5/5 112/1/5
f 110/1/6 111/2/6 114/51/6 116/50/6
f 120/72/1 121/73/1 119/2/1 118/1/1
f 121/72/2 123/74/2 122/52/2 119/1/2
f 123/75/3 125/72/3 124/1/3 122/5/3
f 125/76/4 120/72/4 118/1/4 124/54/4
f 125/56/5 123/60/5 121/5/5 120/1/5
f 118/1/6 119/2/6 122/61/6 124/56/6
f 128/3/1 129/77/1 127/13/1 126/1/1
f 129/3/2 131/77/2 130/13/2 127/1/2
f 131/78/3 133/3/3 132/1/3 130/17/3
f 133/78/4 128/3/4 126/1/4 132/17/4
f 133/19/5 131/79/5 129/17/5 128/1/5
f 126/1/6 127/13/6 130/80/6 132/19/6
f 136/68/19 137/69/19 135/2/19 134/1/19
f 137/66/4 139/81/4 138/13/4 135/1/4
f 139/82/20 141/68/20 140/1/20 138/5/20
f 141/70/2 136/66/2 134/1/2 140/5/2
f 141/7/21 139/8/21 137/5/21 136/1/21
f 134/1/22 135/2/22 138/31/22 140/19/22
f 144/25/1 145/24/1 143/2/1 142/1/1
f 145/25/6 147/26/6 146/2/6 143/1/6
f 147/83/3 149/25/3 148/1/3 146/5/3
f 149/83/5 144/25/5 142/1/5 148/17/5
f 149/19/2 147/32/2 145/5/2 144/1/2
f 142/1/4 143/2/4 146/31/4 148/7/4
f 98/11/1 151/12/1 150/10/1 96/1/1
f 151/11/2 153/14/2 152/13/2 150/1/2
f 153/16/3 155/11/3 154/1/3 152/15/3
f 155/18/4 98/11/4 96/1/4 154/17/4
f 155/19/5 153/20/5 151/15/5 98/1/5
f 96/1/6 150/10/6 152/21/6 154/19/6
f 156/68/15 157/69/15 100/2/15 102/1/15
f 157/66/2 159/84/2 158/13/2 100/1/2
f 159/82/16 161/68/16 160/1/16 158/5/16
f 161/70/4 156/68/4 102/1/4 160/5/4
f 161/19/17 159/32/17 157/5/17 156/1/17
f 102/1/18 100/2/18 158/9/18 160/7/18
f 164/68/19 165/69/19 163/2/19 162/1/19
f 165/68/4 167/69/4 166/13/4 163/1/4
f 167/82/20 169/68/20 168/1/20 166/5/20
f 169/71/2 164/68/2 162/1/2 168/17/2
f 169/7/21 167/8/21 165/5/21 164/1/21
f 162/1/22 163/2/22 166/9/22 168/7/22
f 11/11/1 171/64/1 170/2/1 9/1/1
f 171/11/2 173/62/2 172/52/2 170/1/2
f 173/65/3 175/11/3 174/1/3 172/5/3
f 175/63/4 11/11/4 9/1/4 174/54/4
f 175/56/5 173/60/5 171/5/5 11/1/5
f 9/1/6 170/2/6 172/61/6 174/56/6
f 178/38/3 179/40/3 177/2/3 176/1/3
f 179/38/11 181/40/11 180/2/11 177/1/11
f 181/41/1 183/38/1 182/1/1 180/5/1
f 183/42/12 178/38/12 176/1/12 182/5/12
f 183/7/13 181/30/13 179/17/13 178/1/13
f 176/1/14 177/2/14 180/9/14 182/7/14
f 185/33/1 77/34/1 76/10/1 184/1/1
f 77/33/2 187/35/2 186/13/2 76/1/2
f 187/36/3 189/33/3 188/1/3 186/15/3
f 189/37/4 185/33/4 184/1/4 188/17/4
f 189/19/5 187/20/5 77/15/5 185/1/5
f 184/1/6 76/10/6 186/21/6 188/19/6
f 35/33/1 191/59/1 190/2/1 33/1/1
f 191/33/2 193/53/2 192/52/2 190/1/2
f 193/45/3 185/33/3 184/1/3 192/5/3
f 185/55/4 35/33/4 33/1/4 184/54/4
f 185/56/5 193/60/5 191/5/5 35/1/5
f 33/1/6 190/2/6 192/61/6 184/56/6
f 196/25/1 197/24/1 195/2/1 194/1/1
f 197/25/6 199/24/6 198/2/6 195/1/6
f 199/83/3 201/25/3 200/1/3 198/5/3
f 201/83/5 196/25/5 194/1/5 200/5/5
f 201/7/2 199/8/2 197/5/2 196/1/2
f 194/1/4 195/2/4 198/9/4 200/7/4
f 175/11/1 89/12/1 88/10/1 174/1/1
f 89/11/2 203/14/2 202/13/2 88/1/2
f 203/16/3 205/11/3 204/1/3 202/15/3
f 205/18/4 175/11/4 174/1/4 204/17/4
f 205/19/5 203/20/5 89/15/5 175/1/5
f 174/1/6 88/10/6 202/21/6 204/19/6
f 207/85/1 208/86/1 206/2/1 184/1/1
f 208/38/23 210/40/23 209/2/23 206/1/23
f 210/42/3 211/38/3 188/1/3 209/5/3
f 211/42/24 207/38/24 184/1/24 188/17/24
f 211/19/25 210/79/25 208/17/25 207/1/25
f 184/1/26 206/2/26 209/31/26 188/19/26
f 213/38/1 214/39/1 212/13/1 102/1/1
f 214/38/23 216/40/23 215/2/23 212/1/23
f 216/41/3 218/38/3 217/1/3 215/17/3
f 218/42/24 213/38/24 102/1/24 217/17/24
f 218/7/25 216/30/25 214/17/25 213/1/25
f 102/1/26 212/13/26 215/87/26 217/7/26
f 221/33/1 222/14/1 220/2/1 219/1/1
f 222/11/2 224/44/2 223/43/2 220/1/2
f 224/45/3 226/11/3 225/1/3 223/17/3
f 226/47/4 221/11/4 219/1/4 225/46/4
f 226/48/5 224/49/5 222/5/5 221/1/5
f 219/1/6 220/2/6 223/51/6 225/50/6
f 228/11/1 229/12/1 227/10/1 118/1/1
f 229/11/2 231/62/2 230/52/2 227/1/2
f 231/16/3 232/11/3 124/1/3 230/15/3
f 232/63/4 228/11/4 118/1/4 124/54/4
f 232/56/5 231/88/5 229/15/5 228/1/5
f 118/1/6 227/10/6 230/89/6 124/56/6
f 233/68/15 234/69/15 192/2/15 184/1/15
f 234/66/2 236/81/2 235/13/2 192/1/2
f 236/70/16 238/66/16 237/1/16 235/5/16
f 238/82/4 233/66/4 184/1/4 237/5/4
f 238/19/17 236/32/17 234/5/17 233/1/17
f 184/1/18 192/2/18 235/9/18 237/7/18
f 241/91/1 242/92/1 240/90/1 239/1/1
f 242/91/2 244/93/2 243/13/2 240/1/2
f 244/95/3 246/91/3 245/1/3 243/94/3
f 246/96/4 241/91/4 239/1/4 245/17/4
f 246/19/5 244/97/5 242/94/5 241/1/5
f 239/1/6 240/90/6 243/98/6 245/19/6
f 249/68/19 250/69/19 248/2/19 247/1/19
f 250/66/4 252/84/4 251/13/4 248/1/4
f 252/82/20 254/68/20 253/1/20 251/5/20
f 254/70/2 249/68/2 247/1/2 253/5/2
f 254/7/21 252/8/21 250/5/21 249/1/21
f 247/1/22 248/2/22 251/9/22 253/7/22
f 83/33/1 95/34/1 94/10/1 82/1/1
f 95/33/2 256/35/2 255/13/2 94/1/2
f 256/36/3 258/33/3 257/1/3 255/15/3
f 258/37/4 83/33/4 82/1/4 257/17/4
f 258/19/5 256/20/5 95/15/5 83/1/5
f 82/1/6 94/10/6 255/21/6 257/19/6
f 103/11/1 260/12/1 259/10/1 102/1/1
f 260/11/2 262/14/2 261/13/2 259/1/2
f 262/16/3 263/11/3 217/1/3 261/15/3
f 263/18/4 103/11/4 102/1/4 217/17/4
f 263/19/5 262/20/5 260/15/5 103/1/5
f 102/1/6 259/10/6 261/21/6 217/19/6
f 266/33/1 267/14/1 265/2/1 264/1/1
f 267/11/2 269/44/2 268/43/2 265/1/2
f 269/45/3 271/11/3 270/1/3 268/17/3
f 271/47/4 266/11/4 264/1/4 270/46/4
f 271/48/5 269/49/5 267/5/5 266/1/5
f 264/1/6 265/2/6 268/51/6 270/50/6
f 273/38/1 274/86/1 272/13/1 82/1/1
f 274/38/23 276/40/23 275/2/23 272/1/23
f 276/41/3 277/38/3 257/1/3 275/5/3
f 277/41/24 273/38/24 82/1/24 257/17/24
f 277/19/25 276/32/25 274/5/25 273/1/25
f 82/1/26 272/13/26 275/80/26 257/19/26
f 280/25/1 281/26/1 279/2/1 278/1/1
f 281/23/7 283/24/7 282/22/7 279/1/7
f 283/29/3 285/25/3 284/1/3 282/5/3
f 285/99/8 280/25/8 278/27/8 284/5/8
f 285/7/9 283/8/9 281/5/9 280/1/9
f 278/1/10 279/2/10 282/9/10 284/7/10
f 288/3/1 289/77/1 287/13/1 286/1/1
f 289/3/2 291/77/2 290/13/2 287/1/2
f 291/78/3 293/3/3 292/1/3 290/17/3
f 293/78/4 288/3/4 286/1/4 292/17/4
f 293/19/5 291/79/5 289/17/5 288/1/5
f 286/1/6 287/13/6 290/80/6 292/19/6
f 296/3/1 297/4/1 295/2/1 294/1/1
f 297/3/2 299/77/2 298/13/2 295/1/2
f 299/6/3 301/3/3 300/1/3 298/5/3
f 301/78/4 296/3/4 294/1/4 300/17/4
f 301/19/5 299/32/5 297/5/5 296/1/5
f 294/1/6 295/2/6 298/31/6 300/19/6
f 229/11/1 303/62/1 302/52/1 227/1/1
f 303/11/2 305/12/2 304/10/2 302/1/2
f 305/63/3 307/11/3 306/1/3 304/54/3
f 307/16/4 229/11/4 227/1/4 306/15/4
f 307/100/5 305/101/5 303/54/5 229/1/5
f 227/1/6 302/52/6 304/102/6 306/100/6
f 310/38/3 311/39/3 309/13/3 308/1/3
f 311/38/11 313/40/11 312/2/11 309/1/11
f 313/41/1 315/38/1 314/1/1 312/5/1
f 315/42/12 310/38/12 308/1/12 314/5/12
f 315/7/13 313/30/13 311/17/13 310/1/13
f 308/1/14 309/2/14 312/9/14 314/7/14
f 151/11/1 314/14/1 316/13/1 150/1/1
f 314/11/2 318/62/2 317/52/2 316/1/2
f 318/18/3 260/11/3 259/1/3 317/17/3
f 260/63/4 151/11/4 150/1/4 259/54/4
f 260/56/5 318/57/5 314/17/5 151/1/5
f 150/1/6 316/13/6 317/58/6 259/56/6
f 320/72/1 321/103/1 319/13/1 306/1/1
f 321/72/2 323/104/2 322/90/2 319/1/2
f 323/105/3 324/72/3 230/1/3 322/17/3
f 324/106/4 320/72/4 306/1/4 230/94/4
f 324/107/5 323/108/5 321/17/5 320/1/5
f 306/1/6 319/13/6 322/109/6 230/107/6
f 120/72/1 325/110/1 227/10/1 118/1/1
f 325/72/2 327/103/2 326/13/2 227/1/2
f 327/111/3 329/72/3 328/1/3 326/15/3
f 329/105/4 120/72/4 118/1/4 328/17/4
f 329/19/5 327/20/5 325/15/5 120/1/5
f 118/1/6 227/10/6 326/21/6 328/19/6

