# 3ds Max Wavefront OBJ Exporter v0.97b - (c)2007 guruware
# File Created: 11.01.2016 22:56:40

#
# object Box01
#

v  -30.5839 -0.2887 10.6398
v  15.0857 -0.2887 10.6398
v  15.0684 70.0150 10.6367
v  -30.6219 70.0709 10.6336
v  15.0857 -0.2887 -15.0678
v  15.0737 69.9857 -15.0236
v  -30.5839 -0.2887 -15.0678
v  -30.6297 70.0417 -15.0221
v  -45.5120 90.9250 10.3511
v  -45.5120 90.9250 -14.7792
v  37.6916 82.6820 -14.7792
v  37.6916 82.6820 10.3511
v  14.7970 79.7064 24.7619
v  -30.2952 79.7064 24.7619
v  -30.2952 82.2718 -19.8308
v  14.7970 82.2718 -19.8308
v  -30.2952 70.3229 10.3511
v  -45.1041 91.2142 10.3511
v  -45.1041 91.2142 -14.7792
v  -30.2952 70.3229 -14.7792
v  -30.2952 82.4449 -19.4376
v  14.7970 82.4449 -19.4376
v  14.7970 70.3229 -14.7792
v  37.4457 83.1174 -14.7792
v  37.4457 83.1174 10.3511
v  14.7970 70.3229 10.3511
v  14.7970 80.1173 24.4770
v  -30.2952 80.1173 24.4770
v  -30.2952 0.3134 -14.7792
v  14.7970 0.3134 -14.7792
v  14.7970 0.3134 10.3511
v  -30.2952 0.3134 10.3511
# 32 vertices

vn -0.0000 0.0001 1.0000
vn 0.0000 0.0000 1.0000
vn -0.0001 0.0001 1.0000
vn 1.0000 0.0002 0.0000
vn 1.0000 0.0002 -0.0000
vn 1.0000 0.0002 0.0002
vn -0.0000 0.0006 -1.0000
vn 0.0000 0.0007 -1.0000
vn -1.0000 -0.0006 0.0001
vn -1.0000 -0.0005 -0.0000
vn -1.0000 -0.0006 0.0002
vn -1.0000 -0.0007 0.0003
vn -0.8141 -0.5807 0.0005
vn 0.4890 -0.8723 0.0006
vn -0.0005 -0.8254 0.5646
vn -0.0002 -0.3651 -0.9310
vn 0.2379 0.1757 0.9553
vn -0.5784 0.8158 -0.0000
vn 0.2021 0.1492 -0.9679
vn -0.9158 0.1564 0.3699
vn -0.0000 0.9152 -0.4029
vn 0.9433 0.1293 0.3057
vn -0.1210 0.2242 -0.9670
vn 0.8707 0.4919 -0.0000
vn -0.1437 0.2662 0.9531
vn 0.9586 0.2386 -0.1554
vn 0.0000 0.5698 0.8218
vn -0.9355 0.2961 -0.1928
vn 0.0000 0.3587 0.9334
vn -0.0000 0.8218 -0.5698
vn 0.0000 0.8218 -0.5698
vn 0.8158 0.5783 -0.0000
vn -0.4919 0.8707 -0.0000
vn 0.0000 -0.0000 1.0000
vn 0.0000 0.0000 -1.0000
vn 1.0000 0.0000 -0.0000
vn -1.0000 0.0000 -0.0000
vn 0.0000 -1.0000 -0.0000
vn 0.0000 1.0000 -0.0000
# 39 vertex normals

vt 0.0187 0.5233 0.0000
vt 0.3023 0.5233 0.0000
vt 0.3022 0.9859 0.0000
vt 0.0185 0.9863 0.0000
vt 0.9810 0.5230 0.0000
vt 0.8043 0.5230 0.0000
vt 0.8046 0.9855 0.0000
vt 0.9810 0.9857 0.0000
vt 0.0184 0.9861 0.0000
vt 0.3023 0.9857 0.0000
vt 0.8043 0.5204 0.0000
vt 0.9810 0.5204 0.0000
vt 0.9809 0.9834 0.0000
vt 0.8046 0.9832 0.0000
vt 0.0183 0.3211 0.0000
vt 0.1926 0.3213 0.0000
vt 0.1906 0.4954 0.0000
vt 0.0198 0.4952 0.0000
vt 0.0167 0.3207 0.0000
vt 0.1908 0.3203 0.0000
vt 0.1895 0.4941 0.0000
vt 0.0189 0.4945 0.0000
vt 0.2183 0.3733 0.0000
vt 0.5302 0.3726 0.0000
vt 0.5286 0.4985 0.0000
vt 0.2207 0.4990 0.0000
vt 0.2186 0.3781 0.0000
vt 0.5305 0.3794 0.0000
vt 0.5278 0.4935 0.0000
vt 0.2201 0.4923 0.0000
vt 0.1946 0.3086 0.0000
vt 0.0195 0.3081 0.0000
vt 0.0184 0.2996 0.0000
vt 0.1937 0.3016 0.0000
vt 0.1946 0.2971 0.0000
vt 0.0193 0.2971 0.0000
vt 0.0193 0.2890 0.0000
vt 0.1946 0.2890 0.0000
vt 0.1956 0.3082 0.0000
vt 0.0178 0.3089 0.0000
vt 0.0192 0.3008 0.0000
vt 0.1971 0.3011 0.0000
vt 0.4406 0.3051 0.0000
vt 0.2232 0.3058 0.0000
vt 0.2316 0.2977 0.0000
vt 0.4444 0.2995 0.0000
vt 0.5356 0.3225 0.0000
vt 0.2192 0.3225 0.0000
vt 0.2192 0.3143 0.0000
vt 0.5356 0.3143 0.0000
vt 0.4481 0.3056 0.0000
vt 0.2227 0.3057 0.0000
vt 0.2180 0.2979 0.0000
vt 0.4426 0.2990 0.0000
vt 0.2029 0.3085 0.0000
vt 0.0148 0.3090 0.0000
vt 0.0170 0.2991 0.0000
vt 0.2042 0.3000 0.0000
vt 0.2023 0.2973 0.0000
vt 0.0187 0.2973 0.0000
vt 0.0187 0.2888 0.0000
vt 0.2023 0.2888 0.0000
vt 0.2022 0.3092 0.0000
vt 0.0162 0.3084 0.0000
vt 0.0156 0.2996 0.0000
vt 0.2012 0.3018 0.0000
vt 0.4478 0.3048 0.0000
vt 0.2187 0.3056 0.0000
vt 0.2211 0.2985 0.0000
vt 0.4490 0.2989 0.0000
vt 0.5356 0.3224 0.0000
vt 0.2192 0.3224 0.0000
vt 0.2192 0.3141 0.0000
vt 0.5356 0.3141 0.0000
vt 0.4474 0.3050 0.0000
vt 0.2209 0.3058 0.0000
vt 0.2216 0.2977 0.0000
vt 0.4470 0.2989 0.0000
vt 0.5303 0.4921 0.0000
vt 0.2184 0.4921 0.0000
vt 0.2184 0.3821 0.0000
vt 0.5303 0.3821 0.0000
vt 0.2184 0.3736 0.0000
vt 0.5303 0.3736 0.0000
vt 0.5303 0.4984 0.0000
vt 0.2184 0.4984 0.0000
vt 0.1936 0.4957 0.0000
vt 0.0182 0.4957 0.0000
vt 0.0182 0.3203 0.0000
vt 0.1936 0.3203 0.0000
vt 0.0174 0.3207 0.0000
vt 0.1930 0.3207 0.0000
vt 0.1930 0.4964 0.0000
vt 0.0174 0.4964 0.0000
vt 0.6135 0.9836 0.0000
vt 0.3102 0.9836 0.0000
vt 0.3102 0.5206 0.0000
vt 0.6135 0.5206 0.0000
vt 0.6227 0.9857 0.0000
vt 0.7944 0.9857 0.0000
vt 0.7944 0.5227 0.0000
vt 0.6227 0.5227 0.0000
vt 0.9851 0.2029 0.0000
vt 0.9851 0.0123 0.0000
vt 0.6527 0.0123 0.0000
vt 0.6527 0.2029 0.0000
vt 0.6504 0.2237 0.0000
vt 0.9871 0.2237 0.0000
vt 0.9871 0.4150 0.0000
vt 0.6504 0.4150 0.0000
# 110 texture coords

g Box01
s 8
f 1/1/1 2/2/2 3/3/1 4/4/3 
s 16
f 2/5/4 5/6/5 6/7/6 3/8/6 
s 32
f 5/2/7 7/1/8 8/9/7 6/10/7 
s 64
f 7/11/9 1/12/10 4/13/11 8/14/12 
s off
f 8/15/13 4/16/13 9/17/13 10/18/13 
f 3/19/14 6/20/14 11/21/14 12/22/14 
f 4/23/15 3/24/15 13/25/15 14/26/15 
f 6/27/16 8/28/16 15/29/16 16/30/16 
f 17/31/17 18/32/17 9/33/17 4/34/17 
f 18/35/18 19/36/18 10/37/18 9/38/18 
f 19/39/19 20/40/19 8/41/19 10/42/19 
f 20/43/20 21/44/20 15/45/20 8/46/20 
f 21/47/21 22/48/21 16/49/21 15/50/21 
f 22/51/22 23/52/22 6/53/22 16/54/22 
f 23/55/23 24/56/23 11/57/23 6/58/23 
f 24/59/24 25/60/24 12/61/24 11/62/24 
f 25/63/25 26/64/25 3/65/25 12/66/25 
f 26/67/26 27/68/26 13/69/26 3/70/26 
f 27/71/27 28/72/27 14/73/27 13/74/27 
f 28/75/28 17/76/28 4/77/28 14/78/28 
s 1
f 22/79/29 21/80/29 20/81/29 23/82/29 
f 26/83/30 17/84/31 28/85/30 27/86/30 
s 2
f 19/87/32 18/88/32 17/89/32 20/90/32 
f 23/91/33 26/92/33 25/93/33 24/94/33 
s off
f 23/95/34 20/96/34 29/97/34 30/98/34 
f 17/96/35 26/95/35 31/98/35 32/97/35 
f 20/99/36 17/100/36 32/101/36 29/102/36 
f 26/100/37 23/99/37 30/102/37 31/101/37 
f 5/103/38 2/104/38 1/105/38 7/106/38 
f 32/107/39 31/108/39 30/109/39 29/110/39 
# 30 polygons

